<?xml version="1.0" encoding="utf-8"?>
<!-- Generator: Adobe Illustrator 24.2.1, SVG Export Plug-In . SVG Version: 6.00 Build 0)  -->
<svg version="1.1" id="Vrstva_1" xmlns="http://www.w3.org/2000/svg" xmlns:xlink="http://www.w3.org/1999/xlink" x="0px" y="0px"
	 viewBox="0 0 50 50" style="enable-background:new 0 0 50 50;" xml:space="preserve">
<style type="text/css">
	.st0{fill:none;stroke:#020203;stroke-width:4;}
	.st1{fill:#F7E92A;stroke:#020203;}
</style>
<g id="Vrstva_2_1_">
	<g>
		<ellipse class="st0" cx="32.81" cy="25.55" rx="7.83" ry="4.91"/>
		<ellipse class="st0" cx="17.19" cy="25.55" rx="7.83" ry="4.91"/>
	</g>
	<path class="st1" d="M27.3,5.6c-1.83,2.23-3.65,4.46-5.48,6.69C20.11,17.53,18.4,22.76,16.68,28c4.01-0.44,8.02-0.87,12.03-1.31
		c-1.94,6.27-3.88,12.54-5.82,18.81c1.75-2.2,3.49-4.4,5.24-6.59c1.73-5.16,3.46-10.31,5.19-15.47c-4.01,0.42-8.02,0.84-12.03,1.26
		C23.3,18.34,25.3,11.97,27.3,5.6z"/>
</g>
</svg>
