<?xml version="1.0" encoding="utf-8"?>
<!-- Generator: Adobe Illustrator 24.2.1, SVG Export Plug-In . SVG Version: 6.00 Build 0)  -->
<svg version="1.1" id="Vrstva_1" xmlns="http://www.w3.org/2000/svg" xmlns:xlink="http://www.w3.org/1999/xlink" x="0px" y="0px"
	 viewBox="0 0 200 200" style="enable-background:new 0 0 200 200;" xml:space="preserve">
<style type="text/css">
	.st0{fill:none;stroke:#020203;stroke-width:15;}
	.st1{fill:#F7E92A;stroke:#020203;stroke-width:2;}
</style>
<g id="Vrstva_2_1_">
	<g>
		<ellipse class="st0" cx="141.63" cy="100.84" rx="38.16" ry="23.9"/>
		<ellipse class="st0" cx="65.51" cy="100.84" rx="38.16" ry="23.9"/>
	</g>
	<path class="st1" d="M114.79,3.64c-8.9,10.87-17.8,21.73-26.69,32.6c-8.35,25.51-16.69,51.02-25.04,76.53
		c19.53-2.12,39.05-4.25,58.58-6.38c-9.45,30.55-18.89,61.1-28.34,91.65c8.51-10.71,17.01-21.42,25.51-32.13
		c8.42-25.12,16.85-50.24,25.28-75.35c-19.53,2.05-39.05,4.09-58.58,6.14C95.27,65.68,105.03,34.66,114.79,3.64z"/>
</g>
</svg>
