<?xml version="1.0" encoding="utf-8"?>
<!-- Generator: Adobe Illustrator 24.2.1, SVG Export Plug-In . SVG Version: 6.00 Build 0)  -->
<svg version="1.1" xmlns="http://www.w3.org/2000/svg" xmlns:xlink="http://www.w3.org/1999/xlink" x="0px" y="0px"
	 viewBox="0 0 595.28 841.89" style="enable-background:new 0 0 595.28 841.89;" xml:space="preserve">
<style type="text/css">
	.st0{fill:none;stroke:#000000;stroke-width:21;}
	.st1{fill:#F9EB1D;stroke:#000000;stroke-width:2;}
</style>
<g id="Vrstva_1">
</g>
<g id="Vrstva_2">
	<g>
		<ellipse class="st0" cx="392.2" cy="230.97" rx="55" ry="34.44"/>
		<ellipse class="st0" cx="282.5" cy="230.97" rx="55" ry="34.44"/>
	</g>
	<path class="st1" d="M353.52,90.88c-12.82,15.66-25.65,31.32-38.47,46.98c-12.03,36.77-24.06,73.53-36.09,110.3
		c28.14-3.06,56.28-6.13,84.43-9.19c-13.62,44.03-27.23,88.06-40.85,132.09c12.26-15.43,24.51-30.87,36.77-46.3
		c12.14-36.2,24.28-72.4,36.43-108.6c-28.14,2.95-56.28,5.9-84.43,8.85C325.38,180.3,339.45,135.59,353.52,90.88z"/>
</g>
</svg>
